<svg width="288" height="191" viewBox="0 0 288 191" fill="none" xmlns="http://www.w3.org/2000/svg">
<rect width="287.26" height="191" rx="25" fill="black" fill-opacity="0.4"/>
<path d="M26.384 18.88V20.368H23.424V30H21.6V20.368H18.624V18.88H26.384ZM36.3113 25.376C36.3113 25.7067 36.2899 26.0053 36.2473 26.272H29.5113C29.5646 26.976 29.8259 27.5413 30.2953 27.968C30.7646 28.3947 31.3406 28.608 32.0233 28.608C33.0046 28.608 33.6979 28.1973 34.1033 27.376H36.0712C35.8046 28.1867 35.3193 28.8533 34.6153 29.376C33.9219 29.888 33.0579 30.144 32.0233 30.144C31.1806 30.144 30.4233 29.9573 29.7513 29.584C29.0899 29.2 28.5673 28.6667 28.1833 27.984C27.8099 27.2907 27.6233 26.4907 27.6233 25.584C27.6233 24.6773 27.8046 23.8827 28.1673 23.2C28.5406 22.5067 29.0579 21.9733 29.7193 21.6C30.3913 21.2267 31.1593 21.04 32.0233 21.04C32.8553 21.04 33.5966 21.2213 34.2473 21.584C34.8979 21.9467 35.4046 22.4587 35.7673 23.12C36.1299 23.7707 36.3113 24.5227 36.3113 25.376ZM34.4073 24.8C34.3966 24.128 34.1566 23.5893 33.6873 23.184C33.2179 22.7787 32.6366 22.576 31.9433 22.576C31.3139 22.576 30.7753 22.7787 30.3273 23.184C29.8793 23.5787 29.6126 24.1173 29.5273 24.8H34.4073ZM48.7783 21.04C49.4716 21.04 50.0903 21.184 50.6343 21.472C51.1889 21.76 51.6209 22.1867 51.9303 22.752C52.2503 23.3173 52.4103 24 52.4103 24.8V30H50.6023V25.072C50.6023 24.2827 50.4049 23.68 50.0103 23.264C49.6156 22.8373 49.0769 22.624 48.3943 22.624C47.7116 22.624 47.1676 22.8373 46.7623 23.264C46.3676 23.68 46.1703 24.2827 46.1703 25.072V30H44.3623V25.072C44.3623 24.2827 44.1649 23.68 43.7703 23.264C43.3756 22.8373 42.8369 22.624 42.1543 22.624C41.4716 22.624 40.9276 22.8373 40.5223 23.264C40.1276 23.68 39.9303 24.2827 39.9303 25.072V30H38.1063V21.184H39.9303V22.192C40.2289 21.8293 40.6076 21.5467 41.0663 21.344C41.5249 21.1413 42.0156 21.04 42.5383 21.04C43.2423 21.04 43.8716 21.1893 44.4263 21.488C44.9809 21.7867 45.4076 22.2187 45.7063 22.784C45.9729 22.2507 46.3889 21.8293 46.9543 21.52C47.5196 21.2 48.1276 21.04 48.7783 21.04ZM56.5553 22.48C56.8646 22.0747 57.2859 21.7333 57.8193 21.456C58.3526 21.1787 58.9553 21.04 59.6273 21.04C60.3953 21.04 61.0939 21.232 61.7233 21.616C62.3633 21.9893 62.8646 22.5173 63.2273 23.2C63.5899 23.8827 63.7713 24.6667 63.7713 25.552C63.7713 26.4373 63.5899 27.232 63.2273 27.936C62.8646 28.6293 62.3633 29.1733 61.7233 29.568C61.0939 29.952 60.3953 30.144 59.6273 30.144C58.9553 30.144 58.3579 30.0107 57.8353 29.744C57.3126 29.4667 56.8859 29.1253 56.5553 28.72V34.192H54.7313V21.184H56.5553V22.48ZM61.9153 25.552C61.9153 24.944 61.7873 24.4213 61.5312 23.984C61.2859 23.536 60.9553 23.2 60.5393 22.976C60.1339 22.7413 59.6966 22.624 59.2273 22.624C58.7686 22.624 58.3313 22.7413 57.9153 22.976C57.5099 23.2107 57.1793 23.552 56.9233 24C56.6779 24.448 56.5553 24.976 56.5553 25.584C56.5553 26.192 56.6779 26.7253 56.9233 27.184C57.1793 27.632 57.5099 27.9733 57.9153 28.208C58.3313 28.4427 58.7686 28.56 59.2273 28.56C59.6966 28.56 60.1339 28.4427 60.5393 28.208C60.9553 27.9627 61.2859 27.6107 61.5312 27.152C61.7873 26.6933 61.9153 26.16 61.9153 25.552ZM73.655 25.376C73.655 25.7067 73.6337 26.0053 73.591 26.272H66.855C66.9083 26.976 67.1697 27.5413 67.639 27.968C68.1083 28.3947 68.6843 28.608 69.367 28.608C70.3483 28.608 71.0417 28.1973 71.447 27.376H73.415C73.1483 28.1867 72.663 28.8533 71.959 29.376C71.2657 29.888 70.4017 30.144 69.367 30.144C68.5243 30.144 67.767 29.9573 67.095 29.584C66.4337 29.2 65.911 28.6667 65.527 27.984C65.1537 27.2907 64.967 26.4907 64.967 25.584C64.967 24.6773 65.1483 23.8827 65.511 23.2C65.8843 22.5067 66.4017 21.9733 67.063 21.6C67.735 21.2267 68.503 21.04 69.367 21.04C70.199 21.04 70.9403 21.2213 71.591 21.584C72.2417 21.9467 72.7483 22.4587 73.111 23.12C73.4737 23.7707 73.655 24.5227 73.655 25.376ZM71.751 24.8C71.7403 24.128 71.5003 23.5893 71.031 23.184C70.5617 22.7787 69.9803 22.576 69.287 22.576C68.6577 22.576 68.119 22.7787 67.671 23.184C67.223 23.5787 66.9563 24.1173 66.871 24.8H71.751ZM77.274 22.464C77.5407 22.016 77.8927 21.6693 78.33 21.424C78.778 21.168 79.306 21.04 79.914 21.04V22.928H79.45C78.7353 22.928 78.1913 23.1093 77.818 23.472C77.4553 23.8347 77.274 24.464 77.274 25.36V30H75.45V21.184H77.274V22.464ZM80.9826 25.552C80.9826 24.6667 81.164 23.8827 81.5266 23.2C81.9 22.5173 82.4013 21.9893 83.0306 21.616C83.6706 21.232 84.3746 21.04 85.1426 21.04C85.836 21.04 86.4386 21.1787 86.9506 21.456C87.4733 21.7227 87.8893 22.0587 88.1986 22.464V21.184H90.0386V30H88.1986V28.688C87.8893 29.104 87.468 29.4507 86.9346 29.728C86.4013 30.0053 85.7933 30.144 85.1106 30.144C84.3533 30.144 83.66 29.952 83.0306 29.568C82.4013 29.1733 81.9 28.6293 81.5266 27.936C81.164 27.232 80.9826 26.4373 80.9826 25.552ZM88.1986 25.584C88.1986 24.976 88.0706 24.448 87.8146 24C87.5693 23.552 87.244 23.2107 86.8386 22.976C86.4333 22.7413 85.996 22.624 85.5266 22.624C85.0573 22.624 84.62 22.7413 84.2146 22.976C83.8093 23.2 83.4786 23.536 83.2226 23.984C82.9773 24.4213 82.8546 24.944 82.8546 25.552C82.8546 26.16 82.9773 26.6933 83.2226 27.152C83.4786 27.6107 83.8093 27.9627 84.2146 28.208C84.6306 28.4427 85.068 28.56 85.5266 28.56C85.996 28.56 86.4333 28.4427 86.8386 28.208C87.244 27.9733 87.5693 27.632 87.8146 27.184C88.0706 26.7253 88.1986 26.192 88.1986 25.584ZM94.5624 22.672V27.552C94.5624 27.8827 94.637 28.1227 94.7864 28.272C94.9464 28.4107 95.213 28.48 95.5864 28.48H96.7064V30H95.2664C94.445 30 93.8157 29.808 93.3784 29.424C92.941 29.04 92.7224 28.416 92.7224 27.552V22.672H91.6824V21.184H92.7224V18.992H94.5624V21.184H96.7064V22.672H94.5624ZM106.372 21.184V30H104.548V28.96C104.26 29.3227 103.881 29.6107 103.412 29.824C102.953 30.0267 102.462 30.128 101.94 30.128C101.246 30.128 100.622 29.984 100.068 29.696C99.5235 29.408 99.0915 28.9813 98.7715 28.416C98.4622 27.8507 98.3075 27.168 98.3075 26.368V21.184H100.116V26.096C100.116 26.8853 100.313 27.4933 100.708 27.92C101.102 28.336 101.641 28.544 102.324 28.544C103.006 28.544 103.545 28.336 103.94 27.92C104.345 27.4933 104.548 26.8853 104.548 26.096V21.184H106.372ZM110.602 22.464C110.869 22.016 111.221 21.6693 111.658 21.424C112.106 21.168 112.634 21.04 113.242 21.04V22.928H112.778C112.063 22.928 111.519 23.1093 111.146 23.472C110.783 23.8347 110.602 24.464 110.602 25.36V30H108.778V21.184H110.602V22.464ZM122.999 25.376C122.999 25.7067 122.977 26.0053 122.935 26.272H116.199C116.252 26.976 116.513 27.5413 116.983 27.968C117.452 28.3947 118.028 28.608 118.711 28.608C119.692 28.608 120.385 28.1973 120.791 27.376H122.759C122.492 28.1867 122.007 28.8533 121.303 29.376C120.609 29.888 119.745 30.144 118.711 30.144C117.868 30.144 117.111 29.9573 116.439 29.584C115.777 29.2 115.255 28.6667 114.871 27.984C114.497 27.2907 114.311 26.4907 114.311 25.584C114.311 24.6773 114.492 23.8827 114.855 23.2C115.228 22.5067 115.745 21.9733 116.407 21.6C117.079 21.2267 117.847 21.04 118.711 21.04C119.543 21.04 120.284 21.2213 120.935 21.584C121.585 21.9467 122.092 22.4587 122.455 23.12C122.817 23.7707 122.999 24.5227 122.999 25.376ZM121.095 24.8C121.084 24.128 120.844 23.5893 120.375 23.184C119.905 22.7787 119.324 22.576 118.631 22.576C118.001 22.576 117.463 22.7787 117.015 23.184C116.567 23.5787 116.3 24.1173 116.215 24.8H121.095Z" fill="#7C828B"/>
</svg>
